<svg width="48" height="50" viewBox="0 0 48 50" fill="none" xmlns="http://www.w3.org/2000/svg" xmlns:xlink="http://www.w3.org/1999/xlink">
<path d="M15.34,1.293L15.195,1.461C14.759,2.048 14.807,2.882 15.34,3.414L18.924,7L13,7C5.82,7 0,12.82 0,20L0,37C0,44.18 5.82,50 13,50L31,50C38.18,50 44,44.18 44,37L44.002,22.75C43.058,23.118 42.051,23.36 41.001,23.455L41,37C41,42.523 36.523,47 31,47L13,47C7.477,47 3,42.523 3,37L3,20C3,14.477 7.477,10 13,10L29.285,10C29.534,8.931 29.938,7.922 30.473,6.998L25.076,6.998L28.66,3.414L28.805,3.246C29.241,2.659 29.193,1.825 28.66,1.293C28.074,0.707 27.125,0.707 26.539,1.293L22,5.832L17.461,1.293L17.293,1.148C16.706,0.712 15.872,0.76 15.34,1.293ZM21.43,24.541L10.076,27.55L9.883,27.616C9.201,27.899 8.816,28.65 9.01,29.384C9.223,30.185 10.044,30.662 10.845,30.45L20.314,27.94L20.314,31.651L20.326,31.843C20.437,32.721 21.299,33.33 22.185,33.105L33.919,30.114L34.112,30.05C34.797,29.773 35.189,29.025 35.002,28.29C34.797,27.487 33.98,27.002 33.178,27.207L23.314,29.721L23.314,25.991L23.302,25.798C23.19,24.915 22.318,24.305 21.43,24.541Z" clip-rule="evenodd" fill-rule="evenodd" fill="#262626"/>
<path d="M40,20.5C44.418,20.5 48,16.918 48,12.5C48,8.082 44.418,4.5 40,4.5C35.582,4.5 32,8.082 32,12.5C32,16.918 35.582,20.5 40,20.5Z" clip-rule="evenodd" fill-rule="evenodd" fill="#ED4956"/>
</svg>
