<svg width="128" height="128" viewBox="0 0 128 128" fill="none" xmlns="http://www.w3.org/2000/svg" xmlns:xlink="http://www.w3.org/1999/xlink">
<path d="M64,128C99.346,128 128,99.346 128,64L124,64C124,97.137 97.137,124 64,124L64,128ZM128,64C128,28.654 99.346,0 64,0L64,4C97.137,4 124,30.863 124,64L128,64ZM64,0C28.654,0 0,28.654 0,64L4,64C4,30.863 30.863,4 64,4L64,0ZM0,64C0,99.346 28.654,128 64,128L64,124C30.863,124 4,97.137 4,64L0,64Z" fill="url(#ps_0_1_55)"/>
<path d="M64,120C94.928,120 120,94.928 120,64C120,33.072 94.928,8 64,8C33.072,8 8,33.072 8,64C8,94.928 33.072,120 64,120Z" clip-rule="evenodd" fill-rule="evenodd" fill="url(#pattern_0_1_56)" stroke="#000000" stroke-opacity="0.1" stroke-width="0.5" stroke-miterlimit="3.999327"/>
<defs>
<linearGradient id="ps_0_1_55" x1="68.042" y1="154.472" x2="153.632" y2="62.894" gradientUnits="userSpaceOnUse">
<stop stop-color="#FBAA47"/>
<stop offset="0.52" stop-color="#D91A46"/>
<stop offset="1" stop-color="#A60F93"/>
</linearGradient>
</defs>
</svg>
