<svg width="48" height="44" viewBox="0 0 48 44" fill="none" xmlns="http://www.w3.org/2000/svg" xmlns:xlink="http://www.w3.org/1999/xlink">
<path d="M33.148,2.745C32.043,1.034 30.145,0 28.107,0L18.89,0C16.851,0 14.953,1.035 13.848,2.748L12.341,5.084C11.972,5.655 11.34,6 10.66,6L9,6C4.029,6 0,10.029 0,15L0,35C0,39.971 4.029,44 9,44L38,44C42.971,44 47,39.971 47,35L47,15C47,10.029 42.971,6 38,6L36.339,6C35.66,6 35.027,5.655 34.659,5.085L33.148,2.745ZM18.89,3L28.107,3C29.126,3 30.075,3.517 30.628,4.372L32.139,6.713C33.06,8.139 34.642,9 36.339,9L38,9C41.314,9 44,11.686 44,15L44,35C44,38.314 41.314,41 38,41L9,41C5.686,41 3,38.314 3,35L3,15C3,11.686 5.686,9 9,9L10.66,9C12.359,9 13.941,8.138 14.862,6.71L16.369,4.374C16.921,3.517 17.871,3 18.89,3ZM23.5,13C29.851,13 35,18.149 35,24.5C35,30.851 29.851,36 23.5,36C17.149,36 12,30.851 12,24.5C12,18.149 17.149,13 23.5,13ZM15,24.5C15,19.806 18.806,16 23.5,16C28.194,16 32,19.806 32,24.5C32,29.194 28.194,33 23.5,33C18.806,33 15,29.194 15,24.5Z" clip-rule="evenodd" fill-rule="evenodd" fill="#262626"/>
</svg>
