<svg width="48" height="42" viewBox="0 0 48 42" fill="none" xmlns="http://www.w3.org/2000/svg" xmlns:xlink="http://www.w3.org/1999/xlink">
<path d="M23.745,4.318L22.435,2.787C17.163,-2.485 8.755,-2.126 3.483,3.146C-1.789,8.418 -0.774,18.611 4.498,23.883C6.637,26.022 9.842,28.985 14.111,32.771L17.702,35.93L21.736,39.432C22.847,40.39 24.488,40.405 25.615,39.466L28.883,36.726C34.606,31.89 38.852,28.081 41.623,25.298L42.342,24.565L42.988,23.883C47.898,18.588 49.16,8.295 44.01,3.146L43.637,2.787C38.342,-2.123 30.358,-2.363 25.208,2.787L23.745,4.318ZM5.604,5.267C9.773,1.098 16.223,0.903 20.236,4.831L23.622,8.789L27.377,4.859C31.229,1.009 37.368,1.064 41.597,4.986L41.929,5.307C45.568,8.946 44.949,17.356 40.788,21.843L40.163,22.503L39.47,23.21C37.173,25.515 33.769,28.603 29.281,32.449L26.947,34.435L23.696,37.16L19.669,33.665L16.786,31.133C12.725,27.543 9.591,24.672 7.398,22.53L6.619,21.761C2.276,17.418 1.733,9.139 5.604,5.267Z" clip-rule="evenodd" fill-rule="evenodd" fill="#262626"/>
</svg>
