<svg width="20" height="20" viewBox="0 0 20 20" fill="none" xmlns="http://www.w3.org/2000/svg" xmlns:xlink="http://www.w3.org/1999/xlink">
<path d="M9.898,0L12.363,1.607L15.305,1.587L16.509,4.272L18.995,5.846L18.557,8.755L19.796,11.423L17.855,13.634L17.456,16.549L14.627,17.359L12.716,19.595L9.898,18.747L7.081,19.595L5.169,17.359L2.341,16.549L1.941,13.634L0,11.423L1.24,8.755L0.802,5.846L3.287,4.272L4.492,1.587L7.434,1.607L9.898,0ZM12.516,7.037L8.578,11.218L7.281,9.84C6.978,9.518 6.471,9.503 6.15,9.806C5.828,10.109 5.813,10.615 6.116,10.937L7.996,12.933C8.312,13.269 8.845,13.269 9.161,12.933L13.681,8.134C13.984,7.813 13.968,7.307 13.647,7.004C13.325,6.701 12.819,6.716 12.516,7.037Z" clip-rule="evenodd" fill-rule="evenodd" fill="#3897F0"/>
</svg>
