<svg width="48" height="48" viewBox="0 0 48 48" fill="none" xmlns="http://www.w3.org/2000/svg" xmlns:xlink="http://www.w3.org/1999/xlink">
<path d="M34,0.5C41.456,0.5 47.5,6.544 47.5,14L47.5,34C47.5,41.456 41.456,47.5 34,47.5L14,47.5C6.544,47.5 0.5,41.456 0.5,34L0.5,14C0.5,6.544 6.544,0.5 14,0.5L34,0.5ZM34,3.5L14,3.5C8.201,3.5 3.5,8.201 3.5,14L3.5,34C3.5,39.799 8.201,44.5 14,44.5L34,44.5C39.799,44.5 44.5,39.799 44.5,34L44.5,14C44.5,8.201 39.799,3.5 34,3.5ZM25.486,11.796C25.387,11.064 24.759,10.5 24,10.5L23.796,10.514L23.601,10.554C22.966,10.728 22.5,11.31 22.5,12L22.5,22.498L12,22.5L11.796,22.514C11.064,22.613 10.5,23.241 10.5,24L10.514,24.204C10.613,24.936 11.241,25.5 12,25.5L22.5,25.498L22.5,36L22.514,36.204C22.613,36.936 23.241,37.5 24,37.5L24.204,37.486C24.936,37.387 25.5,36.759 25.5,36L25.5,25.5L36,25.5L36.204,25.486C36.936,25.387 37.5,24.759 37.5,24L37.486,23.796C37.387,23.064 36.759,22.5 36,22.5L25.5,22.5L25.5,12L25.486,11.796Z" clip-rule="evenodd" fill-rule="evenodd" fill="#262626"/>
</svg>
