<svg width="34" height="34" viewBox="0 0 34 34" fill="none" xmlns="http://www.w3.org/2000/svg" xmlns:xlink="http://www.w3.org/1999/xlink">
<path d="M31,0C32.657,0 34,1.343 34,3L34,31C34,32.657 32.657,34 31,34L22.382,34L22.385,21.894L27.809,21.894L27.809,16.33L22.385,16.33L22.385,13.907L22.388,13.7C22.425,12.286 22.871,11.311 24.753,11.207L25.1,11.198L28,11.198L28,6L23.774,6L23.408,6.007C19.559,6.149 16.911,8.564 16.738,12.901L16.729,13.356L16.729,16.33L12,16.33L12,21.894L16.729,21.894L16.726,34L3,34C1.343,34 0,32.657 0,31L0,3C0,1.343 1.343,0 3,0L31,0Z" fill="#3797EF"/>
</svg>
