<svg width="48" height="48" viewBox="0 0 48 48" fill="none" xmlns="http://www.w3.org/2000/svg" xmlns:xlink="http://www.w3.org/1999/xlink">
<path d="M39.5,20C39.5,9.23 30.77,0.5 20,0.5C9.23,0.5 0.5,9.23 0.5,20C0.5,30.77 9.23,39.5 20,39.5C24.845,39.5 29.278,37.733 32.688,34.808L44.667,46.789L44.835,46.934C45.423,47.37 46.256,47.321 46.789,46.789C47.374,46.203 47.374,45.253 46.789,44.667L34.808,32.688C37.733,29.278 39.5,24.845 39.5,20ZM3.5,20C3.5,10.887 10.887,3.5 20,3.5C29.113,3.5 36.5,10.887 36.5,20C36.5,29.113 29.113,36.5 20,36.5C10.887,36.5 3.5,29.113 3.5,20Z" clip-rule="evenodd" fill-rule="evenodd" fill="#262626"/>
</svg>
