<svg width="44" height="44" viewBox="0 0 44 44" fill="none" xmlns="http://www.w3.org/2000/svg" xmlns:xlink="http://www.w3.org/1999/xlink">
<path d="M44,21C44,8.85 34.15,-1 22,-1C9.85,-1 0,8.85 0,21C0,33.15 9.85,43 22,43C24.652,43 28.295,42.033 32.929,40.098L40.423,43.021L40.645,43.093C41.613,43.347 42.64,42.84 43.013,41.884C43.162,41.502 43.19,41.084 43.093,40.685L41.003,32.092L41.345,31.273C43.115,26.963 44,23.538 44,21ZM38.543,30.201L37.853,31.834L39.724,39.528L32.891,36.863L31.025,37.637C27.089,39.225 24.049,40 22,40C11.507,40 3,31.493 3,21C3,10.507 11.507,2 22,2C32.493,2 41,10.507 41,21C41,23.091 40.194,26.19 38.543,30.201Z" clip-rule="evenodd" fill-rule="evenodd" fill="#262626"/>
</svg>
