<svg width="44" height="46" viewBox="0 0 44 46" fill="none" xmlns="http://www.w3.org/2000/svg" xmlns:xlink="http://www.w3.org/1999/xlink">
<path d="M23.4,-0.191L43.4,19.412C43.784,19.788 44,20.303 44,20.84L44,44.999C44,45.552 43.552,45.999 43,45.999L29,45.999C28.448,45.999 28,45.552 28,44.999L28,34C28,30.805 25.502,28.193 22.353,28.01L22,28C18.805,28 16.193,30.498 16.01,33.648L16,34L16,44.999C16,45.552 15.552,45.999 15,45.999L1,46C0.509,46 0.101,45.646 0.016,45.18L0,45L0,45L0,20.84C0,20.303 0.216,19.788 0.6,19.412L20.6,-0.191C21.378,-0.953 22.622,-0.953 23.4,-0.191Z" clip-rule="evenodd" fill-rule="evenodd" fill="#262626"/>
</svg>
