<svg width="48" height="42" viewBox="0 0 48 42" fill="none" xmlns="http://www.w3.org/2000/svg" xmlns:xlink="http://www.w3.org/1999/xlink">
<path d="M23.745,5.31L22.435,3.779C17.163,-1.493 8.755,-1.134 3.483,4.138C-1.789,9.41 -0.774,19.603 4.498,24.875C6.637,27.015 9.842,29.977 14.111,33.763L17.702,36.922L21.736,40.424C22.847,41.383 24.488,41.397 25.615,40.459L28.883,37.719C34.606,32.883 38.852,29.073 41.623,26.291L42.342,25.558L42.988,24.875C47.898,19.58 49.16,9.288 44.01,4.138L43.637,3.779C38.342,-1.131 30.358,-1.37 25.208,3.779L23.745,5.31ZM5.604,6.26C9.773,2.091 16.223,1.895 20.236,5.824L23.622,9.781L27.377,5.852C31.229,2.001 37.368,2.057 41.597,5.979L41.929,6.299C45.568,9.939 44.949,18.348 40.788,22.835L40.163,23.495L39.47,24.202C37.173,26.507 33.769,29.596 29.281,33.442L26.947,35.428L23.696,38.153L19.669,34.657L16.786,32.125C12.725,28.535 9.591,25.664 7.398,23.523L6.619,22.754C2.276,18.411 1.733,10.131 5.604,6.26Z" clip-rule="evenodd" fill-rule="evenodd" fill="#262626"/>
</svg>
