<svg width="42" height="46" viewBox="0 0 42 46" fill="none" xmlns="http://www.w3.org/2000/svg" xmlns:xlink="http://www.w3.org/1999/xlink">
<path d="M-0.279,0.357L-0.279,43.662C-0.279,44.188 -0.072,44.692 0.297,45.066C1.073,45.853 2.339,45.862 3.125,45.086L20.223,28.228L37.32,45.086C37.694,45.455 38.199,45.662 38.724,45.662C39.829,45.662 40.724,44.767 40.724,43.662L40.724,0.357C40.724,-0.195 40.276,-0.643 39.724,-0.643L0.721,-0.643C0.169,-0.643 -0.279,-0.195 -0.279,0.357ZM2.721,41.272L2.721,2.357L37.724,2.357L37.724,41.272L21.627,25.399C20.848,24.632 19.597,24.632 18.818,25.399L2.721,41.272Z" clip-rule="evenodd" fill-rule="evenodd" fill="#262626"/>
</svg>
